<?xml version="1.0" encoding="UTF-8"?>
<svg xmlns="http://www.w3.org/2000/svg" xmlns:xlink="http://www.w3.org/1999/xlink" width="48pt" height="48pt" viewBox="0 0 48 48" version="1.1">
<g id="surface24119150">
<path style=" stroke:none;fill-rule:nonzero;fill:rgb(80%,80%,80%);fill-opacity:1;" d="M 22.941406 45.121094 C 13.109375 45.121094 4.804688 36.820312 4.804688 27 L 4.804688 26.878906 C 4.734375 22.152344 6.296875 18.925781 6.972656 17.761719 C 8.277344 15.507812 9.886719 13.832031 10.378906 13.570312 C 11.105469 13.183594 11.636719 13.757812 11.867188 14.003906 C 12.320312 14.484375 12.09375 15.066406 12.007812 15.289062 C 11.148438 17.535156 10.492188 19.46875 10.5625 22.171875 C 10.652344 25.828125 11.988281 27.550781 12.5625 28.121094 C 12.921875 28.484375 13.21875 28.652344 13.453125 28.734375 C 13.492188 27.523438 13.636719 25.101562 14.183594 22.371094 C 14.507812 20.726562 15.628906 16.402344 18.898438 11.804688 C 22.765625 6.367188 27.3125 4.101562 28.046875 3.882812 C 29.347656 3.492188 32.195312 3.003906 34.519531 2.898438 C 36.988281 2.792969 37.59375 3.429688 38.324219 4.832031 L 38.445312 5.066406 C 40.148438 8.269531 43.230469 18.078125 41.910156 27.96875 C 40.332031 38.390625 32.886719 45.121094 22.941406 45.121094 Z M 14.0625 28.800781 C 14.054688 28.800781 14.046875 28.800781 14.042969 28.800781 L 14.066406 28.800781 C 14.0625 28.800781 14.0625 28.800781 14.0625 28.800781 Z M 14.0625 28.800781 "/>
</g>
</svg>
