<svg xmlns="http://www.w3.org/2000/svg" version="1.0" width="863" height="1280" preserveAspectRatio="xMidYMid meet"><rect id="backgroundrect" width="100%" height="100%" x="0" y="0" fill="none" stroke="none"/>
<metadata>
Created by potrace 1.15, written by Peter Selinger 2001-2017
</metadata>

<g class="currentLayer" style=""><title>Layer 1</title><g transform="translate(0,1280) scale(0.10000000149011612,-0.10000000149011612) " fill="#06e6e6" stroke="none" id="svg_1" class="selected" fill-opacity="1">
<path d="M3349 11509 c-365 -4 -675 -12 -730 -18 -137 -17 -242 -46 -344 -96 -163 -79 -274 -190 -350 -350 -84 -176 -94 -265 -95 -790 -1 -327 -3 -393 -15 -409 -22 -29 -22 -643 0 -672 21 -28 21 -380 0 -408 -22 -29 -22 -641 0 -673 13 -18 15 -398 18 -3109 l2 -3089 23 -85 c67 -249 220 -427 452 -525 35 -15 111 -40 169 -55 58 -16 97 -29 86 -29 -15 -1 -16 -4 -7 -13 10 -10 376 -13 1760 -13 961 0 1760 4 1776 8 19 5 26 11 18 16 -7 4 29 17 81 29 341 83 541 265 629 577 l23 80 3 3141 c2 2767 4 3143 17 3154 22 18 22 671 0 690 -12 10 -15 145 -17 963 l-3 952 -27 95 c-33 121 -67 197 -123 275 -133 187 -346 301 -627 335 -47 6 -437 15 -865 20 -840 10 -901 10 -1854 -1z m3306 -5189 l0 -4115 -2320 0 -2320 0 -3 4109 c-2 3281 0 4111 10 4118 7 4 1053 7 2323 5 l2310 -2 0 -4115z" id="svg_2" fill="#06e6e6" fill-opacity="1"/>
</g><path fill="#06e6e6" stroke-dashoffset="" fill-rule="nonzero" marker-start="" marker-mid="" marker-end="" id="svg_3" d="M394.6771715372649,181.709025078393 L410.4211517430084,181.709025078393 L410.4211517430084,197.45300528413773 L394.6771715372649,197.45300528413773 L394.6771715372649,181.709025078393 zM396.5139692279323,167.801842563317 L396.5139692279323,179.87222738772167 L408.5843540523355,179.87222738772167 L408.5843540523355,167.801842563317 L396.5139692279323,167.801842563317 z" style="color: rgb(6, 230, 230);"/><rect fill="#06e6e6" stroke="#000000" stroke-dashoffset="" fill-rule="nonzero" id="svg_5" x="377.95348834991455" y="167.9069766998291" width="111" height="26" style="color: rgb(6, 230, 230);" class=""/><path fill="#06e6e6" fill-opacity="1" stroke="#000000" stroke-opacity="1" stroke-width="1" stroke-dasharray="none" stroke-linejoin="miter" stroke-linecap="butt" stroke-dashoffset="" fill-rule="nonzero" opacity="1" marker-start="" marker-mid="" marker-end="" d="M402.58139538764954,1110.4302325248718 C402.58139538764954,1094.1318899834353 417.57310809483187,1080.9302325248718 436.08139538764954,1080.9302325248718 C454.5896826804672,1080.9302325248718 469.58139538764954,1094.1318899834353 469.58139538764954,1110.4302325248718 C469.58139538764954,1126.7285750663084 454.5896826804672,1139.9302325248718 436.08139538764954,1139.9302325248718 C417.57310809483187,1139.9302325248718 402.58139538764954,1126.7285750663084 402.58139538764954,1110.4302325248718 z" id="svg_7" class=""/></g></svg>